<svg width="1200" height="800" xmlns="http://www.w3.org/2000/svg">
  <defs>
    <linearGradient id="bg" x1="0%" y1="0%" x2="100%" y2="100%">
      <stop offset="0%" stop-color="#fafafa"/>
      <stop offset="100%" stop-color="#f5f5f5"/>
    </linearGradient>
    <linearGradient id="primary" x1="0%" y1="0%" x2="100%" y2="0%">
      <stop offset="0%" stop-color="#8b5cf6"/>
      <stop offset="100%" stop-color="#a855f7"/>
    </linearGradient>
    <linearGradient id="chart1" x1="0%" y1="0%" x2="100%" y2="0%">
      <stop offset="0%" stop-color="#3b82f6"/>
      <stop offset="100%" stop-color="#1d4ed8"/>
    </linearGradient>
    <linearGradient id="chart2" x1="0%" y1="0%" x2="100%" y2="0%">
      <stop offset="0%" stop-color="#10b981"/>
      <stop offset="100%" stop-color="#059669"/>
    </linearGradient>
  </defs>
  
  <!-- Background -->
  <rect width="1200" height="800" fill="url(#bg)"/>
  
  <!-- Header -->
  <rect x="50" y="40" width="1100" height="80" rx="8" fill="white" stroke="#e5e7eb" stroke-width="1"/>
  <text x="80" y="90" font-family="Inter, sans-serif" font-size="32" font-weight="700" fill="#111827">StudyFlow</text>
  <text x="80" y="110" font-family="Inter, sans-serif" font-size="16" fill="#6b7280">Smart study sessions with rich note-taking</text>
  
  <!-- Navigation Tabs -->
  <rect x="50" y="140" width="1100" height="60" rx="8" fill="white" stroke="#e5e7eb" stroke-width="1"/>
  <text x="130" y="175" font-family="Inter, sans-serif" font-size="14" fill="#6b7280" text-anchor="middle">Timer</text>
  <text x="230" y="175" font-family="Inter, sans-serif" font-size="14" fill="#6b7280" text-anchor="middle">Notes</text>
  <text x="330" y="175" font-family="Inter, sans-serif" font-size="14" fill="#6b7280" text-anchor="middle">Streaks</text>
  <rect x="370" y="155" width="120" height="30" rx="4" fill="url(#primary)"/>
  <text x="430" y="175" font-family="Inter, sans-serif" font-size="14" font-weight="500" fill="white" text-anchor="middle">Dashboard</text>
  <text x="530" y="175" font-family="Inter, sans-serif" font-size="14" fill="#6b7280" text-anchor="middle">History</text>
  <text x="630" y="175" font-family="Inter, sans-serif" font-size="14" fill="#6b7280" text-anchor="middle">Settings</text>
  
  <!-- Main Content -->
  <rect x="50" y="220" width="1100" height="520" rx="12" fill="white" stroke="#e5e7eb" stroke-width="1"/>
  <text x="600" y="260" font-family="Inter, sans-serif" font-size="24" font-weight="600" fill="#111827" text-anchor="middle">Analytics Dashboard</text>
  
  <!-- Stats Cards Row 1 -->
  <rect x="80" y="280" width="200" height="100" rx="8" fill="#f0f9ff" stroke="#0ea5e9" stroke-width="1"/>
  <text x="180" y="305" font-family="Inter, sans-serif" font-size="14" font-weight="500" fill="#0369a1" text-anchor="middle">Total Sessions</text>
  <text x="180" y="340" font-family="Inter, sans-serif" font-size="36" font-weight="700" fill="#0ea5e9" text-anchor="middle">47</text>
  <text x="180" y="365" font-family="Inter, sans-serif" font-size="12" fill="#0284c7" text-anchor="middle">+3 this week</text>
  
  <rect x="300" y="280" width="200" height="100" rx="8" fill="#f0fdf4" stroke="#22c55e" stroke-width="1"/>
  <text x="400" y="305" font-family="Inter, sans-serif" font-size="14" font-weight="500" fill="#166534" text-anchor="middle">Total Hours</text>
  <text x="400" y="340" font-family="Inter, sans-serif" font-size="36" font-weight="700" fill="#22c55e" text-anchor="middle">38.5</text>
  <text x="400" y="365" font-family="Inter, sans-serif" font-size="12" fill="#16a34a" text-anchor="middle">+2.1 this week</text>
  
  <rect x="520" y="280" width="200" height="100" rx="8" fill="#fef3c7" stroke="#f59e0b" stroke-width="1"/>
  <text x="620" y="305" font-family="Inter, sans-serif" font-size="14" font-weight="500" fill="#92400e" text-anchor="middle">Avg Session</text>
  <text x="620" y="340" font-family="Inter, sans-serif" font-size="36" font-weight="700" fill="#f59e0b" text-anchor="middle">49m</text>
  <text x="620" y="365" font-family="Inter, sans-serif" font-size="12" fill="#d97706" text-anchor="middle">+5m from last week</text>
  
  <rect x="740" y="280" width="200" height="100" rx="8" fill="#fef2f2" stroke="#ef4444" stroke-width="1"/>
  <text x="840" y="305" font-family="Inter, sans-serif" font-size="14" font-weight="500" fill="#991b1b" text-anchor="middle">Current Streak</text>
  <text x="840" y="340" font-family="Inter, sans-serif" font-size="36" font-weight="700" fill="#ef4444" text-anchor="middle">15</text>
  <text x="840" y="365" font-family="Inter, sans-serif" font-size="12" fill="#dc2626" text-anchor="middle">days</text>
  
  <rect x="960" y="280" width="180" height="100" rx="8" fill="#f5f3ff" stroke="#8b5cf6" stroke-width="1"/>
  <text x="1050" y="305" font-family="Inter, sans-serif" font-size="14" font-weight="500" fill="#6b21a8" text-anchor="middle">Topics</text>
  <text x="1050" y="340" font-family="Inter, sans-serif" font-size="36" font-weight="700" fill="#8b5cf6" text-anchor="middle">8</text>
  <text x="1050" y="365" font-family="Inter, sans-serif" font-size="12" fill="#7c3aed" text-anchor="middle">subjects</text>
  
  <!-- Charts Section -->
  <text x="80" y="420" font-family="Inter, sans-serif" font-size="18" font-weight="600" fill="#111827">Study Trends</text>
  
  <!-- Weekly Chart -->
  <rect x="80" y="440" width="350" height="220" rx="8" fill="#fefefe" stroke="#e5e7eb" stroke-width="1"/>
  <text x="255" y="465" font-family="Inter, sans-serif" font-size="16" font-weight="500" fill="#374151" text-anchor="middle">Weekly Sessions</text>
  
  <!-- Chart bars -->
  <rect x="110" y="620" width="30" height="20" fill="url(#chart1)" rx="2"/>
  <rect x="150" y="610" width="30" height="30" fill="url(#chart1)" rx="2"/>
  <rect x="190" y="600" width="30" height="40" fill="url(#chart1)" rx="2"/>
  <rect x="230" y="590" width="30" height="50" fill="url(#chart1)" rx="2"/>
  <rect x="270" y="580" width="30" height="60" fill="url(#chart1)" rx="2"/>
  <rect x="310" y="605" width="30" height="35" fill="url(#chart1)" rx="2"/>
  <rect x="350" y="615" width="30" height="25" fill="url(#chart1)" rx="2"/>
  
  <!-- Chart labels -->
  <text x="125" y="655" font-family="Inter, sans-serif" font-size="10" fill="#6b7280" text-anchor="middle">Mon</text>
  <text x="165" y="655" font-family="Inter, sans-serif" font-size="10" fill="#6b7280" text-anchor="middle">Tue</text>
  <text x="205" y="655" font-family="Inter, sans-serif" font-size="10" fill="#6b7280" text-anchor="middle">Wed</text>
  <text x="245" y="655" font-family="Inter, sans-serif" font-size="10" fill="#6b7280" text-anchor="middle">Thu</text>
  <text x="285" y="655" font-family="Inter, sans-serif" font-size="10" fill="#6b7280" text-anchor="middle">Fri</text>
  <text x="325" y="655" font-family="Inter, sans-serif" font-size="10" fill="#6b7280" text-anchor="middle">Sat</text>
  <text x="365" y="655" font-family="Inter, sans-serif" font-size="10" fill="#6b7280" text-anchor="middle">Sun</text>
  
  <!-- Topic Distribution -->
  <rect x="450" y="440" width="350" height="220" rx="8" fill="#fefefe" stroke="#e5e7eb" stroke-width="1"/>
  <text x="625" y="465" font-family="Inter, sans-serif" font-size="16" font-weight="500" fill="#374151" text-anchor="middle">Study by Topic</text>
  
  <!-- Pie chart representation -->
  <circle cx="625" cy="560" r="70" fill="#3b82f6"/>
  <path d="M 625 490 A 70 70 0 0 1 695 560 L 625 560 Z" fill="#10b981"/>
  <path d="M 695 560 A 70 70 0 0 1 625 630 L 625 560 Z" fill="#f59e0b"/>
  <path d="M 625 630 A 70 70 0 0 1 555 560 L 625 560 Z" fill="#ef4444"/>
  
  <!-- Legend -->
  <rect x="720" y="520" width="12" height="12" fill="#3b82f6"/>
  <text x="740" y="530" font-family="Inter, sans-serif" font-size="12" fill="#374151">Mathematics (40%)</text>
  <rect x="720" y="540" width="12" height="12" fill="#10b981"/>
  <text x="740" y="550" font-family="Inter, sans-serif" font-size="12" fill="#374151">Science (25%)</text>
  <rect x="720" y="560" width="12" height="12" fill="#f59e0b"/>
  <text x="740" y="570" font-family="Inter, sans-serif" font-size="12" fill="#374151">History (20%)</text>
  <rect x="720" y="580" width="12" height="12" fill="#ef4444"/>
  <text x="740" y="590" font-family="Inter, sans-serif" font-size="12" fill="#374151">Literature (15%)</text>
  
  <!-- Projections -->
  <rect x="820" y="440" width="320" height="220" rx="8" fill="#fefefe" stroke="#e5e7eb" stroke-width="1"/>
  <text x="980" y="465" font-family="Inter, sans-serif" font-size="16" font-weight="500" fill="#374151" text-anchor="middle">Study Projections</text>
  
  <text x="840" y="490" font-family="Inter, sans-serif" font-size="14" font-weight="500" fill="#374151">At current pace (2.1h/week):</text>
  <text x="840" y="515" font-family="Inter, sans-serif" font-size="12" fill="#6b7280">• 150 days: 45 hours</text>
  <text x="840" y="535" font-family="Inter, sans-serif" font-size="12" fill="#6b7280">• 180 days: 54 hours</text>
  <text x="840" y="555" font-family="Inter, sans-serif" font-size="12" fill="#6b7280">• 365 days: 109 hours</text>
  
  <text x="840" y="585" font-family="Inter, sans-serif" font-size="14" font-weight="500" fill="#374151">Top subject (Mathematics):</text>
  <text x="840" y="610" font-family="Inter, sans-serif" font-size="12" fill="#6b7280">• 150 days: 18 hours</text>
  <text x="840" y="630" font-family="Inter, sans-serif" font-size="12" fill="#6b7280">• 365 days: 44 hours</text>
</svg>