<svg width="1200" height="800" xmlns="http://www.w3.org/2000/svg">
  <defs>
    <linearGradient id="bg" x1="0%" y1="0%" x2="100%" y2="100%">
      <stop offset="0%" stop-color="#fafafa"/>
      <stop offset="100%" stop-color="#f5f5f5"/>
    </linearGradient>
    <linearGradient id="primary" x1="0%" y1="0%" x2="100%" y2="0%">
      <stop offset="0%" stop-color="#8b5cf6"/>
      <stop offset="100%" stop-color="#a855f7"/>
    </linearGradient>
  </defs>
  
  <!-- Background -->
  <rect width="1200" height="800" fill="url(#bg)"/>
  
  <!-- Header -->
  <rect x="50" y="40" width="1100" height="80" rx="8" fill="white" stroke="#e5e7eb" stroke-width="1"/>
  <text x="80" y="90" font-family="Inter, sans-serif" font-size="32" font-weight="700" fill="#111827">StudyFlow</text>
  <text x="80" y="110" font-family="Inter, sans-serif" font-size="16" fill="#6b7280">Smart study sessions with rich note-taking</text>
  
  <!-- Navigation Tabs -->
  <rect x="50" y="140" width="1100" height="60" rx="8" fill="white" stroke="#e5e7eb" stroke-width="1"/>
  <text x="130" y="175" font-family="Inter, sans-serif" font-size="14" fill="#6b7280" text-anchor="middle">Timer</text>
  <rect x="180" y="155" width="120" height="30" rx="4" fill="url(#primary)"/>
  <text x="240" y="175" font-family="Inter, sans-serif" font-size="14" font-weight="500" fill="white" text-anchor="middle">Notes</text>
  <text x="330" y="175" font-family="Inter, sans-serif" font-size="14" fill="#6b7280" text-anchor="middle">Streaks</text>
  <text x="430" y="175" font-family="Inter, sans-serif" font-size="14" fill="#6b7280" text-anchor="middle">Dashboard</text>
  <text x="530" y="175" font-family="Inter, sans-serif" font-size="14" fill="#6b7280" text-anchor="middle">History</text>
  <text x="630" y="175" font-family="Inter, sans-serif" font-size="14" fill="#6b7280" text-anchor="middle">Settings</text>
  
  <!-- Main Content -->
  <rect x="50" y="220" width="1100" height="520" rx="12" fill="white" stroke="#e5e7eb" stroke-width="1"/>
  <text x="600" y="260" font-family="Inter, sans-serif" font-size="24" font-weight="600" fill="#111827" text-anchor="middle">Session Notes</text>
  
  <!-- Export Options -->
  <rect x="900" y="230" width="120" height="35" rx="6" fill="url(#primary)"/>
  <text x="960" y="252" font-family="Inter, sans-serif" font-size="14" font-weight="500" fill="white" text-anchor="middle">Export Notes</text>
  
  <rect x="1030" y="230" width="100" height="35" rx="6" fill="#f3f4f6" stroke="#d1d5db" stroke-width="1"/>
  <text x="1080" y="252" font-family="Inter, sans-serif" font-size="14" fill="#374151" text-anchor="middle">Filter</text>
  
  <!-- Notes List -->
  <rect x="80" y="290" width="1040" height="420" rx="8" fill="#fefefe" stroke="#e5e7eb" stroke-width="1"/>
  
  <!-- Note Item 1 -->
  <rect x="100" y="310" width="1000" height="80" rx="6" fill="white" stroke="#e5e7eb" stroke-width="1"/>
  <rect x="120" y="325" width="60" height="20" rx="4" fill="#dbeafe"/>
  <text x="150" y="338" font-family="Inter, sans-serif" font-size="10" font-weight="500" fill="#1e40af" text-anchor="middle">Math</text>
  
  <rect x="190" y="325" width="80" height="20" rx="4" fill="#dcfce7"/>
  <text x="230" y="338" font-family="Inter, sans-serif" font-size="10" font-weight="500" fill="#166534" text-anchor="middle">Calculus</text>
  
  <text x="120" y="365" font-family="Inter, sans-serif" font-size="16" font-weight="600" fill="#111827">Derivatives and Chain Rule</text>
  <text x="120" y="380" font-family="Inter, sans-serif" font-size="12" fill="#6b7280">Dec 15, 2024 • 45 minutes • 847 words</text>
  
  <rect x="950" y="330" width="60" height="25" rx="4" fill="#f3f4f6" stroke="#d1d5db" stroke-width="1"/>
  <text x="980" y="347" font-family="Inter, sans-serif" font-size="12" fill="#374151" text-anchor="middle">Edit</text>
  
  <rect x="1020" y="330" width="60" height="25" rx="4" fill="#fef2f2" stroke="#fca5a5" stroke-width="1"/>
  <text x="1050" y="347" font-family="Inter, sans-serif" font-size="12" fill="#dc2626" text-anchor="middle">Delete</text>
  
  <!-- Note Item 2 -->
  <rect x="100" y="400" width="1000" height="80" rx="6" fill="white" stroke="#e5e7eb" stroke-width="1"/>
  <rect x="120" y="415" width="70" height="20" rx="4" fill="#fef3c7"/>
  <text x="155" y="428" font-family="Inter, sans-serif" font-size="10" font-weight="500" fill="#92400e" text-anchor="middle">History</text>
  
  <rect x="200" y="415" width="90" height="20" rx="4" fill="#fed7d7"/>
  <text x="245" y="428" font-family="Inter, sans-serif" font-size="10" font-weight="500" fill="#991b1b" text-anchor="middle">World War II</text>
  
  <text x="120" y="455" font-family="Inter, sans-serif" font-size="16" font-weight="600" fill="#111827">The Pacific Theater Campaign</text>
  <text x="120" y="470" font-family="Inter, sans-serif" font-size="12" fill="#6b7280">Dec 14, 2024 • 52 minutes • 1,203 words</text>
  
  <rect x="950" y="420" width="60" height="25" rx="4" fill="#f3f4f6" stroke="#d1d5db" stroke-width="1"/>
  <text x="980" y="437" font-family="Inter, sans-serif" font-size="12" fill="#374151" text-anchor="middle">Edit</text>
  
  <rect x="1020" y="420" width="60" height="25" rx="4" fill="#fef2f2" stroke="#fca5a5" stroke-width="1"/>
  <text x="1050" y="437" font-family="Inter, sans-serif" font-size="12" fill="#dc2626" text-anchor="middle">Delete</text>
  
  <!-- Note Item 3 -->
  <rect x="100" y="490" width="1000" height="80" rx="6" fill="white" stroke="#e5e7eb" stroke-width="1"/>
  <rect x="120" y="505" width="70" height="20" rx="4" fill="#f0f9ff"/>
  <text x="155" y="518" font-family="Inter, sans-serif" font-size="10" font-weight="500" fill="#0369a1" text-anchor="middle">Science</text>
  
  <rect x="200" y="505" width="80" height="20" rx="4" fill="#ecfdf5"/>
  <text x="240" y="518" font-family="Inter, sans-serif" font-size="10" font-weight="500" fill="#065f46" text-anchor="middle">Physics</text>
  
  <text x="120" y="545" font-family="Inter, sans-serif" font-size="16" font-weight="600" fill="#111827">Newton's Laws of Motion</text>
  <text x="120" y="560" font-family="Inter, sans-serif" font-size="12" fill="#6b7280">Dec 13, 2024 • 38 minutes • 692 words</text>
  
  <rect x="950" y="510" width="60" height="25" rx="4" fill="#f3f4f6" stroke="#d1d5db" stroke-width="1"/>
  <text x="980" y="527" font-family="Inter, sans-serif" font-size="12" fill="#374151" text-anchor="middle">Edit</text>
  
  <rect x="1020" y="510" width="60" height="25" rx="4" fill="#fef2f2" stroke="#fca5a5" stroke-width="1"/>
  <text x="1050" y="527" font-family="Inter, sans-serif" font-size="12" fill="#dc2626" text-anchor="middle">Delete</text>
  
  <!-- Note Item 4 -->
  <rect x="100" y="580" width="1000" height="80" rx="6" fill="white" stroke="#e5e7eb" stroke-width="1"/>
  <rect x="120" y="595" width="90" height="20" rx="4" fill="#f5f3ff"/>
  <text x="165" y="608" font-family="Inter, sans-serif" font-size="10" font-weight="500" fill="#6b21a8" text-anchor="middle">Literature</text>
  
  <rect x="220" y="595" width="100" height="20" rx="4" fill="#fef7ff"/>
  <text x="270" y="608" font-family="Inter, sans-serif" font-size="10" font-weight="500" fill="#7c2d12" text-anchor="middle">Shakespeare</text>
  
  <text x="120" y="635" font-family="Inter, sans-serif" font-size="16" font-weight="600" fill="#111827">Hamlet Analysis - Themes</text>
  <text x="120" y="650" font-family="Inter, sans-serif" font-size="12" fill="#6b7280">Dec 12, 2024 • 41 minutes • 756 words</text>
  
  <rect x="950" y="600" width="60" height="25" rx="4" fill="#f3f4f6" stroke="#d1d5db" stroke-width="1"/>
  <text x="980" y="617" font-family="Inter, sans-serif" font-size="12" fill="#374151" text-anchor="middle">Edit</text>
  
  <rect x="1020" y="600" width="60" height="25" rx="4" fill="#fef2f2" stroke="#fca5a5" stroke-width="1"/>
  <text x="1050" y="617" font-family="Inter, sans-serif" font-size="12" fill="#dc2626" text-anchor="middle">Delete</text>
  
  <!-- Bottom pagination/info -->
  <text x="100" y="690" font-family="Inter, sans-serif" font-size="14" fill="#6b7280">Showing 4 of 47 notes • Total words: 3,498</text>
  
  <rect x="950" y="675" width="80" height="30" rx="4" fill="#f3f4f6" stroke="#d1d5db" stroke-width="1"/>
  <text x="990" y="695" font-family="Inter, sans-serif" font-size="12" fill="#374151" text-anchor="middle">Load More</text>
</svg>